<?xml version="1.0" standalone="no"?>
<!DOCTYPE svg PUBLIC "-//W3C//DTD SVG 20010904//EN"
 "http://www.w3.org/TR/2001/REC-SVG-20010904/DTD/svg10.dtd">
<svg version="1.0" xmlns="http://www.w3.org/2000/svg"
 width="512.000000pt" height="512.000000pt" viewBox="0 0 512.000000 512.000000"
 preserveAspectRatio="xMidYMid meet">
<metadata>
Created by potrace 1.14, written by Peter Selinger 2001-2017
</metadata>
<g transform="translate(0.000000,512.000000) scale(0.100000,-0.100000)"
fill="#000000" stroke="none">
<path d="M2378 5116 c-1 -2 -39 -6 -82 -10 -44 -4 -82 -9 -85 -11 -4 -2 -34
-7 -66 -10 -117 -14 -472 -111 -499 -136 -6 -5 -16 -9 -23 -9 -8 0 -49 -16
-91 -35 -403 -184 -722 -432 -991 -771 -152 -191 -310 -480 -394 -719 -29 -80
-74 -237 -81 -278 -3 -15 -7 -35 -10 -45 -3 -9 -7 -34 -11 -56 -3 -21 -7 -41
-9 -45 -4 -6 -12 -68 -26 -201 -8 -81 -5 -463 5 -520 3 -19 12 -75 20 -125 29
-174 78 -357 142 -520 35 -89 122 -270 159 -332 10 -17 36 -60 57 -95 47 -78
164 -236 236 -318 319 -362 725 -626 1186 -769 123 -38 289 -74 405 -87 30 -3
76 -10 102 -14 49 -7 473 -5 518 4 14 2 45 7 70 10 37 6 210 38 270 51 76 17
310 95 390 132 84 38 239 118 309 160 636 382 1088 1046 1207 1773 38 236 40
573 5 805 -108 709 -518 1350 -1116 1747 -117 77 -257 155 -370 204 -44 20
-89 39 -100 44 -86 38 -365 119 -465 134 -19 3 -46 8 -60 11 -14 3 -45 8 -70
11 -25 3 -56 8 -70 10 -28 6 -456 14 -462 10z m403 -611 c24 -3 56 -8 72 -11
145 -22 223 -42 387 -102 345 -124 657 -357 889 -664 168 -222 328 -591 356
-820 3 -24 8 -54 10 -68 13 -59 18 -145 18 -295 0 -608 -290 -1182 -787 -1555
-277 -208 -641 -348 -981 -378 -141 -12 -368 -6 -460 12 -11 2 -42 7 -70 10
-27 4 -84 16 -125 27 -41 12 -88 24 -105 29 -108 28 -328 129 -460 210 -66 40
-217 152 -254 188 -9 9 -35 33 -56 52 -142 128 -317 365 -412 560 -85 174
-158 408 -177 570 -3 25 -9 59 -12 75 -3 17 -7 98 -8 181 -3 158 3 236 29 374
3 14 7 41 10 60 9 57 24 108 67 235 210 622 729 1100 1368 1260 114 29 136 33
265 49 103 13 359 13 436 1z"/>
<path d="M3192 3275 c-40 -12 -115 -63 -172 -117 -14 -13 -52 -46 -85 -73 -33
-28 -64 -55 -70 -61 -5 -6 -37 -33 -70 -60 -33 -27 -62 -51 -65 -54 -3 -3 -23
-20 -45 -39 -22 -19 -67 -57 -100 -86 -33 -29 -116 -100 -185 -158 l-124 -106
-151 148 c-131 128 -158 151 -210 170 -46 17 -74 21 -120 18 -72 -5 -79 -7
-130 -35 -51 -27 -64 -38 -98 -84 -54 -73 -73 -187 -45 -269 21 -62 55 -102
308 -355 289 -289 303 -299 425 -299 104 0 142 18 266 126 53 46 201 174 330
284 129 110 242 207 251 215 9 8 107 92 217 185 184 156 203 175 232 235 117
237 -106 494 -359 415z"/>
</g>
</svg>
